<?xml version="1.0" encoding="utf-8"?>
<!-- Generator: Adobe Illustrator 16.0.0, SVG Export Plug-In . SVG Version: 6.00 Build 0)  -->
<!DOCTYPE svg PUBLIC "-//W3C//DTD SVG 1.1//EN" "http://www.w3.org/Graphics/SVG/1.1/DTD/svg11.dtd">
<svg version="1.1" id="图层_1" xmlns="http://www.w3.org/2000/svg" xmlns:xlink="http://www.w3.org/1999/xlink" x="0px" y="0px"
	 width="436px" height="160px" viewBox="0 0 436 160" enable-background="new 0 0 436 160" xml:space="preserve">
<rect fill="none" width="436" height="160"/>
<linearGradient id="SVGID_1_" gradientUnits="userSpaceOnUse" x1="201.3198" y1="680.9199" x2="201.3198" y2="840.9199" gradientTransform="matrix(1 0 0 1 16.6797 -680.9199)">
	<stop  offset="0" style="stop-color:#FF82FF"/>
	<stop  offset="1" style="stop-color:#86DDFF"/>
</linearGradient>
<rect fill="url(#SVGID_1_)" width="436" height="160"/>
<g opacity="0.2">
	<g>
		
			<linearGradient id="SVGID_2_" gradientUnits="userSpaceOnUse" x1="253.9258" y1="-7.5483" x2="275.9395" y2="-7.5483" gradientTransform="matrix(1 0 0 -1 8.3398 136.04)">
			<stop  offset="0" style="stop-color:#3FA9F5"/>
			<stop  offset="0.1815" style="stop-color:#3AAFF6"/>
			<stop  offset="0.4302" style="stop-color:#2EC1F8"/>
			<stop  offset="0.7164" style="stop-color:#19DEFB"/>
			<stop  offset="0.9841" style="stop-color:#00FFFF"/>
		</linearGradient>
		<path fill="url(#SVGID_2_)" d="M284.279,143.591c0,6.077-4.93,11.004-11.008,11.004s-11.006-4.927-11.006-11.004
			c0-6.082,4.928-11.009,11.006-11.009S284.279,137.509,284.279,143.591z"/>
		<g>
			
				<linearGradient id="SVGID_3_" gradientUnits="userSpaceOnUse" x1="357.6348" y1="81.958" x2="379.6504" y2="81.958" gradientTransform="matrix(1 0 0 -1 8.3398 136.04)">
				<stop  offset="0" style="stop-color:#3FA9F5"/>
				<stop  offset="0.1815" style="stop-color:#3AAFF6"/>
				<stop  offset="0.4302" style="stop-color:#2EC1F8"/>
				<stop  offset="0.7164" style="stop-color:#19DEFB"/>
				<stop  offset="0.9841" style="stop-color:#00FFFF"/>
			</linearGradient>
			<path fill="url(#SVGID_3_)" d="M387.99,54.085c0,6.081-4.932,11.003-11.008,11.003c-6.082,0-11.008-4.922-11.008-11.003
				c0-6.083,4.926-11.009,11.008-11.009C383.06,43.076,387.99,48.003,387.99,54.085z"/>
			
				<linearGradient id="SVGID_4_" gradientUnits="userSpaceOnUse" x1="357.9443" y1="21.5503" x2="379.3408" y2="21.5503" gradientTransform="matrix(1 0 0 -1 8.3398 136.04)">
				<stop  offset="0" style="stop-color:#3FA9F5"/>
				<stop  offset="0.1815" style="stop-color:#3AAFF6"/>
				<stop  offset="0.4302" style="stop-color:#2EC1F8"/>
				<stop  offset="0.7164" style="stop-color:#19DEFB"/>
				<stop  offset="0.9841" style="stop-color:#00FFFF"/>
			</linearGradient>
			<path fill="url(#SVGID_4_)" d="M376.982,74.385c-6.045,0-10.698,3.591-10.698,8.021v64.168c0,4.43,4.653,8.021,10.698,8.021
				c6.042,0,10.698-3.591,10.698-8.021V82.406C387.682,77.976,383.024,74.385,376.982,74.385z M381.297,112.62
				c0,2.149-1.573,3.915-3.631,4.244v20.553c2.996,0.343,5.326,2.854,5.326,5.94c0,3.319-2.688,6.011-6.008,6.011
				c-3.32,0-6.012-2.69-6.012-6.011c0-3.086,2.33-5.599,5.323-5.94v-20.553c-2.056-0.329-3.628-2.095-3.628-4.244
				s1.572-3.916,3.628-4.246V91.215c-2.993-0.345-5.323-2.857-5.323-5.939c0-3.319,2.69-6.012,6.012-6.012
				c3.318,0,6.008,2.692,6.008,6.012c0,3.082-2.33,5.596-5.326,5.939v17.159C379.724,108.704,381.297,110.471,381.297,112.62z"/>
		</g>
		
			<linearGradient id="SVGID_5_" gradientUnits="userSpaceOnUse" x1="265.7393" y1="35.8965" x2="353.2539" y2="35.8965" gradientTransform="matrix(1 0 0 -1 8.3398 136.04)">
			<stop  offset="0" style="stop-color:#3FA9F5"/>
			<stop  offset="0.1815" style="stop-color:#3AAFF6"/>
			<stop  offset="0.4302" style="stop-color:#2EC1F8"/>
			<stop  offset="0.7164" style="stop-color:#19DEFB"/>
			<stop  offset="0.9841" style="stop-color:#00FFFF"/>
		</linearGradient>
		<path fill="url(#SVGID_5_)" d="M360.506,136.01l-35.364-82.255c-2.902-6.76-10.739-9.881-17.501-6.976
			c-0.091,0.038-0.177,0.089-0.268,0.13c-2.818,0.743-5.08,2.417-6.142,4.883l-26.528,61.696c-2.18,5.07,1.535,11.535,8.294,14.441
			c2.136,0.918,4.323,1.369,6.382,1.398v0.188h39.332l7.315,17.017c2.906,6.76,10.743,9.883,17.505,6.974
			C360.288,150.604,363.414,142.764,360.506,136.01z M300.906,120.007l11.858-27.581l11.857,27.581H300.906z M351.277,148.104
			c-3.44,1.429-7.387-0.201-8.814-3.646c-1.328-3.198,0.01-6.808,2.964-8.448l-12.154-29.295c-2.273,0.545-4.667-0.609-5.594-2.84
			c-0.924-2.227-0.052-4.734,1.939-5.964l-12.502-30.125c-3.249,0.93-6.75-0.669-8.078-3.868c-1.43-3.442,0.202-7.388,3.646-8.819
			c3.44-1.428,7.389,0.205,8.817,3.646c1.328,3.198-0.011,6.808-2.964,8.452l12.499,30.125c2.273-0.545,4.665,0.615,5.591,2.839
			c0.927,2.229,0.052,4.741-1.938,5.966l12.156,29.292c3.25-0.933,6.748,0.67,8.076,3.866
			C356.352,142.729,354.718,146.676,351.277,148.104z"/>
	</g>
	<g>
		<g>
			<defs>
				<path id="SVGID_6_" d="M284.279,143.591c0,6.077-4.93,11.004-11.008,11.004s-11.006-4.927-11.006-11.004
					c0-6.082,4.928-11.009,11.006-11.009S284.279,137.509,284.279,143.591z M376.982,43.076c-6.082,0-11.008,4.927-11.008,11.009
					c0,6.081,4.926,11.003,11.008,11.003c6.076,0,11.008-4.922,11.008-11.003C387.99,48.003,383.06,43.076,376.982,43.076z
					 M387.682,82.406v64.168c0,4.43-4.656,8.021-10.698,8.021c-6.044,0-10.698-3.591-10.698-8.021V82.406
					c0-4.43,4.654-8.021,10.698-8.021C383.024,74.385,387.682,77.976,387.682,82.406z M377.666,108.374V91.215
					c2.996-0.345,5.326-2.857,5.326-5.939c0-3.319-2.688-6.012-6.008-6.012c-3.32,0-6.012,2.692-6.012,6.012
					c0,3.082,2.33,5.596,5.323,5.939v17.159c-2.056,0.33-3.628,2.097-3.628,4.246s1.572,3.915,3.628,4.244v20.553
					c-2.993,0.343-5.323,2.854-5.323,5.94c0,3.319,2.69,6.011,6.012,6.011c3.318,0,6.008-2.69,6.008-6.011
					c0-3.086-2.33-5.599-5.326-5.94v-20.553c2.058-0.329,3.631-2.095,3.631-4.244S379.724,108.704,377.666,108.374z
					 M353.531,153.506c-6.762,2.909-14.599-0.214-17.505-6.974l-7.315-17.017h-39.332v-0.188c-2.059-0.029-4.246-0.48-6.382-1.398
					c-6.759-2.906-10.474-9.371-8.294-14.441l26.528-61.696c1.062-2.467,3.322-4.14,6.142-4.883c0.091-0.041,0.177-0.092,0.268-0.13
					c6.762-2.905,14.599,0.216,17.501,6.976l35.364,82.255C363.414,142.764,360.288,150.604,353.531,153.506z M324.623,120.007
					l-11.857-27.581l-11.858,27.581H324.623z M354.924,139.285c-1.328-3.196-4.826-4.799-8.076-3.866l-12.156-29.292
					c1.988-1.225,2.863-3.734,1.938-5.966c-0.926-2.224-3.316-3.384-5.591-2.839l-12.499-30.125
					c2.953-1.645,4.292-5.254,2.964-8.452c-1.43-3.442-5.377-5.074-8.817-3.646c-3.443,1.431-5.075,5.377-3.646,8.819
					c1.328,3.199,4.829,4.798,8.078,3.868l12.502,30.125c-1.991,1.229-2.863,3.737-1.939,5.964c0.927,2.23,3.319,3.385,5.594,2.84
					l12.154,29.295c-2.954,1.641-4.292,5.25-2.964,8.448c1.429,3.444,5.374,5.074,8.814,3.646
					C354.718,146.676,356.352,142.729,354.924,139.285z"/>
			</defs>
			<clipPath id="SVGID_7_">
				<use xlink:href="#SVGID_6_"  overflow="visible"/>
			</clipPath>
			<g clip-path="url(#SVGID_7_)">
				
					<linearGradient id="SVGID_8_" gradientUnits="userSpaceOnUse" x1="331.3623" y1="96.4824" x2="562.8213" y2="96.4824" gradientTransform="matrix(0.9478 0.3188 0.3188 -0.9478 -121.5568 66.4192)">
					<stop  offset="0" style="stop-color:#00ADEE"/>
					<stop  offset="1" style="stop-color:#2E3191"/>
				</linearGradient>
				<path opacity="0.4" fill="url(#SVGID_8_)" enable-background="new    " d="M369.853,7.816
					c-60.574-20.377-126.206,12.209-146.583,72.79c-20.38,60.584,12.209,126.207,72.787,146.588
					c60.581,20.38,126.206-12.211,146.586-72.788C463.019,93.825,430.438,28.196,369.853,7.816z M312.129,179.409
					c-34.188-11.501-52.578-48.542-41.077-82.729c11.501-34.186,48.538-52.581,82.729-41.076
					c34.188,11.498,52.583,48.539,41.08,82.726C383.357,172.52,346.318,190.909,312.129,179.409z"/>
				
					<linearGradient id="SVGID_9_" gradientUnits="userSpaceOnUse" x1="115.2607" y1="-99.7119" x2="530.8889" y2="341.808" gradientTransform="matrix(0.9478 0.3188 0.3188 -0.9478 -121.5568 66.4192)">
					<stop  offset="0" style="stop-color:#00ADEE"/>
					<stop  offset="1" style="stop-color:#2E3191"/>
				</linearGradient>
				<path fill="url(#SVGID_9_)" d="M412.683-160.497c-76.682-25.795-159.756,15.457-185.55,92.141
					c-25.795,76.679,15.455,159.752,92.136,185.549c76.678,25.796,159.756-15.455,185.549-92.139
					C530.614-51.626,489.366-134.7,412.683-160.497z M339.618,56.704C296.342,42.148,273.063-4.736,287.62-48.01
					c14.557-43.275,61.438-66.557,104.714-51.999c43.276,14.56,66.551,61.44,51.997,104.715
					C429.775,47.983,382.892,71.264,339.618,56.704z"/>
			</g>
		</g>
	</g>
</g>
</svg>
