<?xml version="1.0" encoding="utf-8"?>
<!-- Generator: Adobe Illustrator 16.0.0, SVG Export Plug-In . SVG Version: 6.00 Build 0)  -->
<!DOCTYPE svg PUBLIC "-//W3C//DTD SVG 1.1//EN" "http://www.w3.org/Graphics/SVG/1.1/DTD/svg11.dtd">
<svg version="1.1" id="图层_1" xmlns="http://www.w3.org/2000/svg" xmlns:xlink="http://www.w3.org/1999/xlink" x="0px" y="0px"
	 width="868px" height="160px" viewBox="0 0 868 160" enable-background="new 0 0 868 160" xml:space="preserve">
<rect fill="none" width="868" height="160"/>
<linearGradient id="SVGID_1_" gradientUnits="userSpaceOnUse" x1="-16.6797" y1="760.9199" x2="851.3203" y2="760.9199" gradientTransform="matrix(1 0 0 1 16.6797 -680.9199)">
	<stop  offset="0" style="stop-color:#0090FF"/>
	<stop  offset="1" style="stop-color:#CAB5FF"/>
</linearGradient>
<rect fill="url(#SVGID_1_)" width="868" height="160"/>
<g opacity="0.2">
	<g>
		
			<linearGradient id="SVGID_2_" gradientUnits="userSpaceOnUse" x1="-17.0498" y1="761.8359" x2="131.4985" y2="761.8359" gradientTransform="matrix(1 0 0 1 16.6797 -680.9199)">
			<stop  offset="0" style="stop-color:#FF5B91"/>
			<stop  offset="0.9997" style="stop-color:#7C0EFF"/>
		</linearGradient>
		<path fill="url(#SVGID_2_)" d="M104.862,88.337l22.999-53.738c1.78,0.922,3.742,1.443,5.811,1.443
			c8.007,0,14.506-7.677,14.506-17.142c0-9.47-6.499-17.143-14.506-17.143c-8.007,0-14.503,7.674-14.503,17.143
			c0,6.441,3.013,12.047,7.461,14.979l-23.073,53.908c-0.395-0.098-0.807-0.157-1.231-0.157c-3.225,0-5.845,3.086-5.845,6.903
			c0,2.058,0.778,3.882,1.984,5.146l-15.876,37.096c-0.525-0.103-1.06-0.166-1.61-0.166c-0.128,0-0.254,0.016-0.382,0.021v-31.969
			c2.373-2.526,3.856-5.935,3.856-9.257c0-3.318-1.483-6.729-3.856-9.254V32.614c2.495-9.139-0.961-19.018-8.501-23.484
			l-0.444-0.049c-8.334-4.932-18.474-0.843-22.647,9.009L1.421,130.4c-4.174,9.848-0.804,21.863,7.531,26.797l0.441,0.272
			c8.334,4.938,18.478,1.153,22.65-8.694l17.107-40.149h22.924c2.614,0,5.032-0.999,7.031-2.583v30.781
			c-4.588,1.037-8.055,5.798-8.055,11.521c0,6.481,4.442,11.73,9.928,11.73c5.483,0,9.927-5.249,9.927-11.73
			c0-5.251-2.915-9.692-6.938-11.192l15.637-36.538c0.817,0.51,1.732,0.829,2.72,0.829c3.228,0,5.845-3.096,5.845-6.908
			C108.17,91.796,106.813,89.454,104.862,88.337z M72.075,82.189H59.463l19.643-45.506V84.77
			C77.107,83.188,74.688,82.189,72.075,82.189z"/>
		
			<linearGradient id="SVGID_3_" gradientUnits="userSpaceOnUse" x1="105.1836" y1="783.3047" x2="130.1274" y2="783.3047" gradientTransform="matrix(1 0 0 1 16.6797 -680.9199)">
			<stop  offset="0" style="stop-color:#FF5B91"/>
			<stop  offset="0.9997" style="stop-color:#7C0EFF"/>
		</linearGradient>
		<path fill="url(#SVGID_3_)" d="M133.626,45.374l-0.34,0.005c-6.422,0.137-11.535,6.406-11.421,14l1.337,86.52
			c0.116,7.596,5.421,13.639,11.844,13.496l0.342-0.006c6.422-0.139,11.534-6.404,11.417-13.996L145.47,58.87
			C145.35,51.275,140.049,45.235,133.626,45.374z"/>
	</g>
	<g>
		<g>
			<g>
				<defs>
					<path id="SVGID_4_" d="M72.075,82.293H59.463l20.163-46.715c4.174-9.853,0.804-21.411-7.531-26.347l-0.444-0.049
						c-8.334-4.935-18.474-0.844-22.647,9.009L1.421,130.5c-4.174,9.852-0.804,21.863,7.531,26.796l0.441,0.272
						c8.334,4.938,18.478,1.158,22.65-8.694l17.107-40.149h22.924c6.838,0,12.378-6.785,12.378-13.218
						C84.453,89.077,78.913,82.293,72.075,82.293z"/>
				</defs>
				<clipPath id="SVGID_5_">
					<use xlink:href="#SVGID_4_"  overflow="visible"/>
				</clipPath>
				<g clip-path="url(#SVGID_5_)">
					
						<linearGradient id="SVGID_6_" gradientUnits="userSpaceOnUse" x1="64.9521" y1="1150.4893" x2="348.8849" y2="848.8687" gradientTransform="matrix(0.9478 0.3188 -0.3188 0.9478 67.9491 -904.3539)">
						<stop  offset="0" style="stop-color:#BAF257"/>
						<stop  offset="0.1707" style="stop-color:#D1C77D"/>
						<stop  offset="0.4707" style="stop-color:#FF74C8"/>
						<stop  offset="0.5509" style="stop-color:#FA75CA"/>
						<stop  offset="0.6498" style="stop-color:#EB76CF"/>
						<stop  offset="0.7587" style="stop-color:#D179D7"/>
						<stop  offset="0.8747" style="stop-color:#AE7CE3"/>
						<stop  offset="0.9953" style="stop-color:#8281F1"/>
						<stop  offset="1" style="stop-color:#8081F2"/>
					</linearGradient>
					<path fill="url(#SVGID_6_)" d="M49.475-32.168C2.298-50.925-48.808-20.931-64.677,34.836
						c-15.872,55.758,9.504,116.167,56.68,134.923c47.177,18.763,98.288-11.235,114.156-66.997
						C122.028,46.998,96.651-13.41,49.475-32.168z M4.524,125.777c-26.622-10.586-40.944-44.683-31.988-76.149
						c8.955-31.47,37.798-48.397,64.422-37.81c26.623,10.584,40.943,44.677,31.987,76.146
						C59.991,119.432,31.146,136.359,4.524,125.777z"/>
					
						<radialGradient id="SVGID_7_" cx="397.9063" cy="543.4004" r="48.0498" gradientTransform="matrix(1.6153 0.6422 -0.5433 1.9092 -338.3363 -1194.0059)" gradientUnits="userSpaceOnUse">
						<stop  offset="0.7688" style="stop-color:#000000"/>
						<stop  offset="1" style="stop-color:#575757"/>
					</radialGradient>
					<path opacity="0.4" fill="url(#SVGID_7_)" enable-background="new    " d="M35.278,7.253
						C-7.585-9.792-54.021,17.463-68.44,68.128c-14.421,50.668,8.638,105.556,51.501,122.599
						c42.867,17.043,89.303-10.211,103.723-60.877C101.202,79.186,78.145,24.296,35.278,7.253z M-5.565,150.762
						c-24.188-9.617-37.203-40.597-29.064-69.193C-26.491,52.979-0.287,37.6,23.907,47.218
						c24.191,9.619,37.208,40.595,29.068,69.188C44.836,145.001,18.627,160.383-5.565,150.762z"/>
					
						<linearGradient id="SVGID_8_" gradientUnits="userSpaceOnUse" x1="5.5103" y1="1142.792" x2="312.3257" y2="816.8633" gradientTransform="matrix(0.9478 0.3188 -0.3188 0.9478 67.9491 -904.3539)">
						<stop  offset="0" style="stop-color:#AE7EFF"/>
						<stop  offset="0.2567" style="stop-color:#D86CF2"/>
						<stop  offset="0.4707" style="stop-color:#FF5BE6"/>
						<stop  offset="0.9902" style="stop-color:#FFDE72"/>
					</linearGradient>
					<path fill="url(#SVGID_8_)" d="M44.618-97.486C-9.64-119.059-68.422-84.561-86.675-20.426
						c-18.251,64.132,10.936,133.611,65.194,155.187c54.256,21.572,113.039-12.929,131.29-77.059
						C128.063-6.434,98.878-75.914,44.618-97.486z M-7.082,84.168C-37.704,71.996-54.176,32.784-43.873-3.407
						c10.298-36.195,43.469-55.665,74.093-43.49C60.84-34.72,77.309,4.488,67.011,40.681C56.712,76.875,23.54,96.345-7.082,84.168z"
						/>
				</g>
			</g>
		</g>
	</g>
	<g>
		<g>
			<g>
				<defs>
					<path id="SVGID_9_" d="M147.466,144.007c0.12,7.593-4.995,13.858-11.418,14l-0.34,0.005c-6.422,0.141-11.727-5.9-11.843-13.496
						l-1.338-86.521c-0.116-7.594,4.998-13.86,11.42-13.999l0.342-0.005c6.422-0.141,11.724,5.899,11.84,13.493L147.466,144.007z
						 M134.335,0.374c-8.009,0-14.503,7.673-14.503,17.14c0,9.467,6.494,17.142,14.503,17.142c8.007,0,14.503-7.675,14.503-17.142
						C148.838,8.047,142.342,0.374,134.335,0.374z"/>
				</defs>
				<clipPath id="SVGID_10_">
					<use xlink:href="#SVGID_9_"  overflow="visible"/>
				</clipPath>
				<g clip-path="url(#SVGID_10_)">
					
						<linearGradient id="SVGID_11_" gradientUnits="userSpaceOnUse" x1="210.5347" y1="1091.0996" x2="503.7837" y2="779.5826" gradientTransform="matrix(0.9478 0.3188 -0.3188 0.9478 67.9491 -904.3539)">
						<stop  offset="0" style="stop-color:#BAF257"/>
						<stop  offset="0.1707" style="stop-color:#D1C77D"/>
						<stop  offset="0.4707" style="stop-color:#FF74C8"/>
						<stop  offset="0.5509" style="stop-color:#FA75CA"/>
						<stop  offset="0.6498" style="stop-color:#EB76CF"/>
						<stop  offset="0.7587" style="stop-color:#D179D7"/>
						<stop  offset="0.8747" style="stop-color:#AE7CE3"/>
						<stop  offset="0.9953" style="stop-color:#8281F1"/>
						<stop  offset="1" style="stop-color:#8081F2"/>
					</linearGradient>
					<path fill="url(#SVGID_11_)" d="M215.799-49.884C167.074-69.26,114.29-38.279,97.899,19.315
						c-16.392,57.589,9.819,119.981,58.542,139.355c48.724,19.375,101.513-11.607,117.897-69.197
						C290.734,31.878,264.521-30.512,215.799-49.884z M169.373,113.241c-27.495-10.933-42.289-46.146-33.04-78.645
						c9.251-32.506,39.039-49.989,66.539-39.055c27.499,10.933,42.285,46.146,33.034,78.646
						C226.66,106.688,196.871,124.176,169.373,113.241z"/>
					
						<radialGradient id="SVGID_12_" cx="487.5488" cy="506.2207" r="49.6279" gradientTransform="matrix(1.6153 0.6422 -0.5433 1.9092 -338.3363 -1194.0059)" gradientUnits="userSpaceOnUse">
						<stop  offset="0.7688" style="stop-color:#000000"/>
						<stop  offset="1" style="stop-color:#575757"/>
					</radialGradient>
					<path opacity="0.4" fill="url(#SVGID_12_)" enable-background="new    " d="M201.137-9.174
						c-44.27-17.603-92.232,10.548-107.126,62.878c-14.894,52.326,8.922,109.017,53.193,126.62
						c44.273,17.604,92.232-10.549,107.129-62.874C269.224,65.12,245.412,8.431,201.137-9.174z M158.952,139.049
						c-24.982-9.934-38.424-41.931-30.02-71.461c8.408-29.53,35.472-45.418,60.459-35.482c24.986,9.933,38.429,41.927,30.022,71.46
						C211.011,133.1,183.938,148.984,158.952,139.049z"/>
					
						<linearGradient id="SVGID_13_" gradientUnits="userSpaceOnUse" x1="149.1357" y1="1083.1514" x2="466.0227" y2="746.5239" gradientTransform="matrix(0.9478 0.3188 -0.3188 0.9478 67.9491 -904.3539)">
						<stop  offset="0" style="stop-color:#AE7EFF"/>
						<stop  offset="0.2567" style="stop-color:#D86CF2"/>
						<stop  offset="0.4707" style="stop-color:#FF5BE6"/>
						<stop  offset="0.9902" style="stop-color:#FFDE72"/>
					</linearGradient>
					<path fill="url(#SVGID_13_)" d="M210.782-117.35c-56.04-22.284-116.75,13.351-135.602,79.592
						c-18.851,66.237,11.292,137.994,67.334,160.275c56.036,22.281,116.749-13.354,135.598-79.591
						C296.966-23.309,266.823-95.066,210.782-117.35z M157.387,70.271c-31.629-12.574-48.643-53.072-38-90.453
						c10.639-37.381,44.896-57.493,76.526-44.917c31.621,12.576,48.633,53.073,38,90.453
						C223.27,62.736,189.009,82.844,157.387,70.271z"/>
				</g>
			</g>
		</g>
	</g>
</g>
<g>
	<g>
		<g>
			<g>
				<defs>
					<path id="SVGID_14_" d="M694.005,41.848l36.354,102.868c3.109,8.804,9.229,12.793,15.97,10.412
						c2.813-0.994,5.661-3.093,8.236-6.067l72.229-83.384c4.383-5.058,5.965-10.197,4.456-14.469
						c-1.509-4.273-5.971-7.28-12.563-8.464l-108.58-19.483c-3.871-0.694-7.403-0.535-10.218,0.459
						C693.15,26.102,690.896,33.049,694.005,41.848"/>
				</defs>
				<clipPath id="SVGID_15_">
					<use xlink:href="#SVGID_14_"  overflow="visible"/>
				</clipPath>
				
					<radialGradient id="SVGID_16_" cx="-308.249" cy="1080.4375" r="0.1927" gradientTransform="matrix(198.3447 561.2473 569.5734 -201.2871 -553416.6875 390519.7813)" gradientUnits="userSpaceOnUse">
					<stop  offset="0" style="stop-color:#FFF588"/>
					<stop  offset="0.3132" style="stop-color:#FFF350"/>
					<stop  offset="1" style="stop-color:#FAA919"/>
				</radialGradient>
				<polygon clip-path="url(#SVGID_15_)" fill="url(#SVGID_16_)" points="808.032,-14.497 854.472,116.91 735.402,158.988 
					688.964,27.582 				"/>
			</g>
		</g>
	</g>
	<path fill="#D88119" d="M700.461,25.326L700.461,25.326c2.525-0.892,5.749-1.025,9.321-0.384l108.584,19.481
		c5.96,1.073,9.956,3.686,11.253,7.361c1.298,3.674-0.17,8.215-4.133,12.788l-72.231,83.386c-2.377,2.745-4.967,4.669-7.494,5.562
		c-5.818,2.059-10.97-1.447-13.771-9.379L695.637,41.273C692.834,33.346,694.639,27.385,700.461,25.326 M699.324,22.112
		c-7.431,2.626-10.501,10.266-6.95,20.313l36.353,102.868c3.553,10.047,10.742,14.066,18.174,11.441
		c3.025-1.069,6.098-3.248,8.974-6.57l72.229-83.384c9.934-11.463,5.844-23.034-9.088-25.716L710.43,21.58
		C706.104,20.806,702.354,21.042,699.324,22.112"/>
	<g>
		<g>
			<g>
				<g opacity="0.1">
					<defs>
						
							<rect id="SVGID_17_" x="724.116" y="61.086" transform="matrix(-0.9429 0.3332 -0.3332 -0.9429 1550.9717 -69.866)" opacity="0.1" width="114.721" height="73.943"/>
					</defs>
					<clipPath id="SVGID_18_">
						<use xlink:href="#SVGID_17_"  overflow="visible"/>
					</clipPath>
					<g clip-path="url(#SVGID_18_)">
						<g>
							<g>
								<defs>
									<path id="SVGID_19_" d="M817.714,47.788l-3.253-0.578c2.541,0.995,4.258,2.408,4.855,4.1
										c0.871,2.467-0.406,5.928-3.521,9.51l-72.74,83.97c-1.484,1.718-3.02,3.035-4.523,3.884
										c1.512,1.563,3.51,2.547,6.097,1.633c1.961-0.692,4.033-2.271,6.017-4.557l72.225-83.378
										c3.087-3.556,4.354-6.999,3.494-9.438C825.5,50.496,822.349,48.615,817.714,47.788"/>
								</defs>
								<clipPath id="SVGID_20_">
									<use xlink:href="#SVGID_19_"  overflow="visible"/>
								</clipPath>
								
									<linearGradient id="SVGID_21_" gradientUnits="userSpaceOnUse" x1="-308.3179" y1="1080.5352" x2="-308.126" y2="1080.5352" gradientTransform="matrix(-1062.1484 696.929 696.929 1062.1484 -1079657.5 -932778.625)">
									<stop  offset="0" style="stop-color:#FFFFFF"/>
									<stop  offset="1" style="stop-color:#000000"/>
								</linearGradient>
								<polygon clip-path="url(#SVGID_20_)" fill="url(#SVGID_21_)" points="862.63,104.139 754.739,174.93 700.33,92.01 
									808.223,21.217 								"/>
							</g>
						</g>
					</g>
					<g clip-path="url(#SVGID_18_)">
						<g>
							<g>
								<g opacity="0.1">
									<defs>
										
											<rect id="SVGID_22_" x="706.663" y="14.026" transform="matrix(-0.9429 0.3332 -0.3332 -0.9429 1474.5957 -143.4118)" opacity="0.1" width="85.864" height="81.416"/>
									</defs>
									<clipPath id="SVGID_23_">
										<use xlink:href="#SVGID_22_"  overflow="visible"/>
									</clipPath>
									<g clip-path="url(#SVGID_23_)">
										<g>
											<g>
												<defs>
													<path id="SVGID_24_" d="M768.686,57.01c7.329-5.366,14.818-10.036,22.291-14.019l-81.84-14.69
														c-2.978-0.533-5.58-0.453-7.541,0.239c-5.447,1.925-3.7,8.734-2.693,11.578l23.788,67.313
														C732.072,90.123,747.942,72.176,768.686,57.01"/>
												</defs>
												<clipPath id="SVGID_25_">
													<use xlink:href="#SVGID_24_"  overflow="visible"/>
												</clipPath>
												
													<linearGradient id="SVGID_26_" gradientUnits="userSpaceOnUse" x1="-307.4424" y1="1080.835" x2="-307.2506" y2="1080.835" gradientTransform="matrix(487.3144 303.0528 303.0528 -487.3144 -177030.8594 619900.875)">
													<stop  offset="0" style="stop-color:#FFFFFF"/>
													<stop  offset="1" style="stop-color:#000000"/>
												</linearGradient>
												<polygon clip-path="url(#SVGID_25_)" fill="url(#SVGID_26_)" points="730.968,-26.259 830.496,35.636 768.232,135.756 
													668.706,73.859 												"/>
											</g>
										</g>
									</g>
								</g>
							</g>
						</g>
					</g>
				</g>
			</g>
		</g>
	</g>
</g>
</svg>
